<svg xmlns="http://www.w3.org/2000/svg">
    <symbol id="beer" viewBox="0 0 24 24">
        <path fill-rule="evenodd" clip-rule="evenodd" d="M6.94601 5.99192C7.19996 5.53918 7.66425 5.25 8.18182 5.25C8.70673 5.25 9.18659 5.54588 9.43679 5.99192L10.745 5.99192C10.9952 5.54589 11.4751 5.25 12 5.25C12.5322 5.25 13.0276 5.55237 13.2741 5.99192H14.5824C14.8363 5.53918 15.3006 5.25 15.8182 5.25C16.5874 5.25 17.25 5.89965 17.25 6.75C17.25 7.60035 16.5874 8.25 15.8182 8.25C15.3006 8.25 14.8363 7.96082 14.5824 7.50808H13.2741C13.0276 7.94763 12.5322 8.25 12 8.25C11.4751 8.25 10.9952 7.95411 10.745 7.50808H9.43679C9.18659 7.95412 8.70673 8.25 8.18182 8.25C7.66425 8.25 7.19996 7.96082 6.94601 7.50808C6.82205 7.2871 6.75 7.02893 6.75 6.75C6.75 6.47107 6.82205 6.2129 6.94601 5.99192ZM8.18182 3.75C7.08423 3.75 6.1383 4.36577 5.63777 5.25808C5.39044 5.69899 5.25 6.20929 5.25 6.75C5.25 7.29071 5.39044 7.80101 5.63777 8.24192C5.9002 8.70975 6.28505 9.10157 6.75 9.36847V19.8718L7.95341 21H16.0466L17.25 19.8718V18C18.4926 18 19.5 16.9926 19.5 15.75V12.75C19.5 11.5074 18.4926 10.5 17.25 10.5V9.36944C18.1508 8.85242 18.75 7.86384 18.75 6.75C18.75 5.11507 17.459 3.75 15.8182 3.75C15.0917 3.75 14.4317 4.01974 13.9233 4.46086C13.3994 4.0163 12.7199 3.75 12 3.75C11.2768 3.75 10.6071 4.01801 10.0909 4.46088C9.57475 4.01801 8.90503 3.75 8.18182 3.75ZM15.75 9.74921C15.0505 9.7329 14.4158 9.46642 13.9233 9.03914C13.3994 9.4837 12.7199 9.75 12 9.75C11.2768 9.75 10.6071 9.48199 10.0909 9.03912C9.59101 9.46804 8.94707 9.73294 8.25 9.74921V19.222L8.54659 19.5H15.4534L15.75 19.222V9.74921ZM18 12.75V15.75C18 16.1642 17.6642 16.5 17.25 16.5V12C17.6642 12 18 12.3358 18 12.75ZM9.75 17.25V11.25H11.25V17.25H9.75ZM12.75 11.25V17.25H14.25V11.25H12.75Z" fill="currentColor"></path>
    </symbol>
    <symbol id="food" viewBox="0 0 24 24" fill="none">
        <path d="M15 15L18.3787 11.6213C18.7765 11.2235 19.3161 11 19.8787 11H20C21.1046 11 22 11.8954 22 13V13C22 14.1046 21.1046 15 20 15H4C2.89543 15 2 14.1046 2 13V13C2 11.8954 2.89543 11 4 11L8.51472 11C10.106 11 11.6321 11.6321 12.7574 12.7574L15 15Z" stroke="currentColor" stroke-linecap="round" stroke-linejoin="round" stroke-width="2"/><path d="M3 15H21V17C21 18.6569 19.6569 20 18 20H6C4.34315 20 3 18.6569 3 17V15Z" stroke="currentColor" stroke-linecap="round" stroke-linejoin="round" stroke-width="2"/><path d="M12 4C7.37672 4 3.56765 5.75576 3.05796 10.0009C2.99212 10.5493 3.44772 11 4 11H20C20.5523 11 21.0079 10.5493 20.942 10.0009C20.4323 5.75576 16.6233 4 12 4Z" stroke="currentColor" stroke-linecap="round" stroke-linejoin="round" stroke-width="2"/><path d="M7.001 8H7" stroke="currentColor" stroke-linecap="round" stroke-linejoin="round" stroke-width="2"/><path d="M15.001 7H15" stroke="currentColor" stroke-linecap="round" stroke-linejoin="round" stroke-width="2"/><path d="M12.001 8H12" stroke="currentColor" stroke-linecap="round" stroke-linejoin="round" stroke-width="2"/>
    </symbol>
    <symbol id="cross" viewBox="0 0 24 24" fill="none">
        <path fill-rule="evenodd" clip-rule="evenodd" d="M4.29289 4.29289C4.68342 3.90237 5.31658 3.90237 5.70711 4.29289L12 10.5858L18.2929 4.29289C18.6834 3.90237 19.3166 3.90237 19.7071 4.29289C20.0976 4.68342 20.0976 5.31658 19.7071 5.70711L13.4142 12L19.7071 18.2929C20.0976 18.6834 20.0976 19.3166 19.7071 19.7071C19.3166 20.0976 18.6834 20.0976 18.2929 19.7071L12 13.4142L5.70711 19.7071C5.31658 20.0976 4.68342 20.0976 4.29289 19.7071C3.90237 19.3166 3.90237 18.6834 4.29289 18.2929L10.5858 12L4.29289 5.70711C3.90237 5.31658 3.90237 4.68342 4.29289 4.29289Z" fill="currentColor"/>
    </symbol>
    <symbol id="loupe" viewBox="0 0 50 50">
        <path d="M 21 3 C 11.621094 3 4 10.621094 4 20 C 4 29.378906 11.621094 37 21 37 C 24.710938 37 28.140625 35.804688 30.9375 33.78125 L 44.09375 46.90625 L 46.90625 44.09375 L 33.90625 31.0625 C 36.460938 28.085938 38 24.222656 38 20 C 38 10.621094 30.378906 3 21 3 Z M 21 5 C 29.296875 5 36 11.703125 36 20 C 36 28.296875 29.296875 35 21 35 C 12.703125 35 6 28.296875 6 20 C 6 11.703125 12.703125 5 21 5 Z" fill="currentColor"/>
    </symbol>
    <symbol id="trash" viewBox="0 0 50 50">
        <path d="M25,10H7v17c0,1.105,0.895,2,2,2h14c1.105,0,2-0.895,2-2V10z" fill="none" stroke="#000000" stroke-linecap="round" stroke-linejoin="round" stroke-miterlimit="10" stroke-width="2"/><path d="  M20,7h-8V5c0-1.105,0.895-2,2-2h4c1.105,0,2,0.895,2,2V7z" fill="none" id="XMLID_145_" stroke="#000000" stroke-linecap="round" stroke-linejoin="round" stroke-miterlimit="10" stroke-width="2"/><path d="  M28,10H4V8c0-0.552,0.448-1,1-1h22c0.552,0,1,0.448,1,1V10z" fill="none" id="XMLID_146_" stroke="#000000" stroke-linecap="round" stroke-linejoin="round" stroke-miterlimit="10" stroke-width="2"/><line fill="none" id="XMLID_148_" stroke="#000000" stroke-linecap="round" stroke-linejoin="round" stroke-miterlimit="10" stroke-width="2" x1="16" x2="16" y1="15" y2="24"/><line fill="none" id="XMLID_147_" stroke="#000000" stroke-linecap="round" stroke-linejoin="round" stroke-miterlimit="10" stroke-width="2" x1="12" x2="12" y1="15" y2="24"/><line fill="none" id="XMLID_149_" stroke="#000000" stroke-linecap="round" stroke-linejoin="round" stroke-miterlimit="10" stroke-width="2" x1="20" x2="20" y1="15" y2="24"/>
    </symbol>
    <symbol id="pencil" fill="#000000" viewBox="0 0 50 50">
        <path d="M30.133 1.552c-1.090-1.044-2.291-1.573-3.574-1.573-2.006 0-3.47 1.296-3.87 1.693-0.564 0.558-19.786 19.788-19.786 19.788-0.126 0.126-0.217 0.284-0.264 0.456-0.433 1.602-2.605 8.71-2.627 8.782-0.112 0.364-0.012 0.761 0.256 1.029 0.193 0.192 0.45 0.295 0.713 0.295 0.104 0 0.208-0.016 0.31-0.049 0.073-0.024 7.41-2.395 8.618-2.756 0.159-0.048 0.305-0.134 0.423-0.251 0.763-0.754 18.691-18.483 19.881-19.712 1.231-1.268 1.843-2.59 1.819-3.925-0.025-1.319-0.664-2.589-1.901-3.776zM22.37 4.87c0.509 0.123 1.711 0.527 2.938 1.765 1.24 1.251 1.575 2.681 1.638 3.007-3.932 3.912-12.983 12.867-16.551 16.396-0.329-0.767-0.862-1.692-1.719-2.555-1.046-1.054-2.111-1.649-2.932-1.984 3.531-3.532 12.753-12.757 16.625-16.628zM4.387 23.186c0.55 0.146 1.691 0.57 2.854 1.742 0.896 0.904 1.319 1.9 1.509 2.508-1.39 0.447-4.434 1.497-6.367 2.121 0.573-1.886 1.541-4.822 2.004-6.371zM28.763 7.824c-0.041 0.042-0.109 0.11-0.19 0.192-0.316-0.814-0.87-1.86-1.831-2.828-0.981-0.989-1.976-1.572-2.773-1.917 0.068-0.067 0.12-0.12 0.141-0.14 0.114-0.113 1.153-1.106 2.447-1.106 0.745 0 1.477 0.34 2.175 1.010 0.828 0.795 1.256 1.579 1.27 2.331 0.014 0.768-0.404 1.595-1.24 2.458z"></path>
    </symbol>
</svg>