<svg width="128" height="22" viewBox="0 0 128 22" fill="none" xmlns="http://www.w3.org/2000/svg">
<path d="M32.7803 16.8672V6.36719H36.8303C40.2053 6.36719 42.4553 8.61719 42.4553 11.6172C42.4553 14.6922 40.2053 16.8672 36.8303 16.8672H32.7803ZM34.8803 15.1422H36.8303C38.8553 15.1422 40.2803 13.7172 40.2803 11.6172C40.2803 9.51719 38.8553 8.09219 36.8303 8.09219H34.8803V15.1422ZM48.0844 17.1672C45.4594 17.1672 43.7344 15.4422 43.7344 13.1172C43.7344 10.7172 45.3844 9.06719 47.7094 9.06719C50.0344 9.06719 51.6844 10.7172 51.6844 13.1172L50.7094 14.0172H45.8194C46.1344 14.8422 46.8094 15.5172 48.2344 15.5172C49.4344 15.5172 50.1844 14.9172 50.1844 14.9172L50.9344 16.2672C50.9344 16.2672 49.8094 17.1672 48.0844 17.1672ZM45.8194 12.4422H49.5844C49.4344 11.4672 48.6844 10.7172 47.7094 10.7172C46.7344 10.7172 45.9844 11.4672 45.8194 12.4422ZM53.7914 16.8672V7.94219H52.6664V6.36719H55.7414V16.8672H53.7914ZM58.1479 16.8672V9.36719H60.0979V16.8672H58.1479ZM59.1229 8.31719C58.4479 8.31719 57.9229 7.79219 57.9229 7.19219C57.9229 6.59219 58.4479 6.06719 59.1229 6.06719C59.7979 6.06719 60.3229 6.59219 60.3229 7.19219C60.3229 7.79219 59.7979 8.31719 59.1229 8.31719ZM64.5235 16.8672L61.4485 9.36719H63.5485L65.6485 14.9172H65.7235L67.8235 9.36719H69.9235L66.8485 16.8672H64.5235ZM75.0229 17.1672C72.3979 17.1672 70.6729 15.4422 70.6729 13.1172C70.6729 10.7172 72.3229 9.06719 74.6479 9.06719C76.9729 9.06719 78.6229 10.7172 78.6229 13.1172L77.6479 14.0172H72.7579C73.0729 14.8422 73.7479 15.5172 75.1729 15.5172C76.3729 15.5172 77.1229 14.9172 77.1229 14.9172L77.8729 16.2672C77.8729 16.2672 76.7479 17.1672 75.0229 17.1672ZM72.7579 12.4422H76.5229C76.3729 11.4672 75.6229 10.7172 74.6479 10.7172C73.6729 10.7172 72.9229 11.4672 72.7579 12.4422ZM80.2799 16.8672V9.74219C80.2799 9.74219 81.7049 9.06719 83.3549 9.06719C84.8099 9.06719 85.9049 9.66719 85.9049 9.66719L85.3799 11.1672C85.3799 11.1672 84.6299 10.7172 83.5049 10.7172C82.8299 10.7172 82.2299 10.9422 82.2299 10.9422V16.8672H80.2799ZM90.4793 20.0172C88.6793 20.0172 87.5543 19.1172 87.5543 19.1172L88.3043 17.7672C88.3043 17.7672 89.2043 18.3672 90.4793 18.3672C92.5043 18.3672 92.8043 16.7172 92.8043 16.7172V16.5672C92.8043 16.5672 91.9043 16.7172 91.1543 16.7172C88.6043 16.7172 87.1793 15.2922 87.1793 13.3422V9.36719H89.1293V13.3422C89.1293 14.3172 89.8793 15.0672 91.1543 15.0672C91.9793 15.0672 92.8043 14.8422 92.8043 14.8422V9.36719H94.7543V16.5672C94.7543 18.3672 93.1793 20.0172 90.4793 20.0172ZM97.2334 16.8672V6.36719H102.033C104.958 6.36719 106.533 7.94219 106.533 9.96719C106.533 11.9922 104.958 13.5672 102.033 13.5672H99.3334V16.8672H97.2334ZM99.3334 11.8422H102.033C103.458 11.8422 104.358 10.9422 104.358 9.96719C104.358 8.99219 103.458 8.09219 102.033 8.09219H99.3334V11.8422ZM112.16 17.1672C109.61 17.1672 108.185 15.7422 108.185 13.7922V9.36719H110.135V13.7922C110.135 14.7672 110.885 15.5172 112.16 15.5172C112.985 15.5172 113.81 15.2922 113.81 15.2922V9.36719H115.76V16.4922C115.76 16.4922 113.885 17.1672 112.16 17.1672ZM121.464 17.1672C119.739 17.1672 118.089 16.4922 118.089 16.4922V6.36719H120.039V9.29219C120.039 9.29219 120.789 9.06719 121.464 9.06719C124.089 9.06719 125.889 10.8672 125.889 13.1172C125.889 15.3672 124.089 17.1672 121.464 17.1672ZM121.464 15.5172C122.889 15.5172 123.864 14.5422 123.864 13.1172C123.864 11.6922 122.889 10.7172 121.464 10.7172C120.789 10.7172 120.039 10.9422 120.039 10.9422V15.2922C120.039 15.2922 120.789 15.5172 121.464 15.5172Z" fill="#1F1F1F"/>
<path d="M20.7981 0.0626528C21.4521 -0.0927554 22.1227 0.0887277 22.783 0.0981147C23.3337 0.173211 23.923 0.0918565 24.4319 0.357824C25.1349 0.667597 25.5626 1.44568 25.4958 2.20499C25.4395 2.75779 25.4531 3.36169 25.1255 3.83939C25.2079 5.22137 25.3039 6.60336 25.3634 7.98639C25.742 8.52562 26.155 9.06694 26.2968 9.72821C26.5503 10.5835 26.3719 11.4669 26.3323 12.3368C26.1602 14.3081 26.0382 16.2835 25.8567 18.2548C25.8275 18.8493 25.8358 19.4657 25.5886 20.0206C25.1255 21.219 23.8426 21.9763 22.5796 21.9502C21.5313 21.9251 20.4925 21.7687 19.4453 21.7353C18.3575 21.7019 17.3332 21.049 16.8222 20.0915C13.4877 20.0811 10.1542 20.0915 6.81971 20.0874C6.45257 20.0926 6.06561 19.9664 5.84554 19.6566C5.54515 19.2133 5.5535 18.5208 5.98426 18.1609C6.20016 17.9325 6.52037 17.8647 6.8218 17.8678C7.97015 17.8595 9.1185 17.8731 10.2658 17.8647C10.635 17.8543 11.0783 17.7135 11.2076 17.3276C11.4767 16.8092 11.0575 16.0999 10.4682 16.0989C8.55841 16.0853 6.64866 16.0968 4.73786 16.0947C4.30293 16.0895 3.83045 16.1427 3.43723 15.9153C2.78014 15.5774 2.69253 14.5334 3.26827 14.0776C3.52902 13.8596 3.87425 13.7709 4.20906 13.7772C7.37563 13.7761 10.5422 13.7793 13.7088 13.7761C14.345 13.8356 14.8457 13.021 14.4712 12.4922C14.3148 12.1688 13.9487 12.027 13.6076 12.0322C9.71197 12.0301 5.81634 12.0301 1.9207 12.0322C1.57964 12.0458 1.22397 11.9498 0.97782 11.7037C0.639885 11.3563 0.550187 10.7827 0.787993 10.3561C1.00702 10.0098 1.39607 9.75637 1.8164 9.78453C5.50239 9.7814 9.18942 9.78766 12.8754 9.78245C13.1956 9.78975 13.5127 9.65729 13.7453 9.4393C14.0196 9.10658 14.029 8.60072 13.8298 8.22836C13.5867 7.83828 13.0851 7.75275 12.6616 7.74441C10.8885 7.74754 9.11537 7.74232 7.34226 7.74858C6.97407 7.74441 6.55374 7.72042 6.2836 7.43359C5.76314 6.97884 5.82781 6.02032 6.4411 5.67508C6.77382 5.46126 7.18163 5.51237 7.55712 5.50924C10.8937 5.51237 14.2313 5.50924 17.569 5.51133C18.201 5.50716 18.807 5.12959 19.1043 4.57471C19.3066 4.1648 19.3348 3.70067 19.4339 3.26052C19.2148 2.75779 19.3306 2.20186 19.3681 1.67723C19.4391 0.909575 20.0513 0.234749 20.7981 0.0626528ZM21.2779 1.71791C21.2132 2.00578 21.1851 2.30303 21.1788 2.59925C21.1621 2.84748 21.5532 2.94866 21.4177 3.22088C21.0703 4.96583 20.7428 6.716 20.3767 8.45678C20.0983 8.73109 19.7374 8.93031 19.535 9.27972C19.0031 10.0057 19.1032 10.9464 18.9958 11.7913C18.8769 13.7021 18.6933 15.6076 18.589 17.5195C18.5556 18.1349 18.3596 18.7961 18.6422 19.3823C18.8727 19.8339 19.3535 20.1479 19.8615 20.1739C20.8002 20.2282 21.7379 20.3189 22.6755 20.3961C23.2596 20.4566 23.8301 20.0915 24.093 19.5794C24.2609 19.2342 24.2536 18.8378 24.2849 18.4634C24.3151 17.8094 24.3861 17.1586 24.4382 16.5057C23.7686 17.1628 22.6964 17.5143 21.8296 17.0334C20.5113 16.3784 20.1243 14.6137 20.6698 13.3255C21.0286 12.487 21.8369 11.7777 22.7798 11.7537C23.5454 11.6964 24.2672 12.148 24.701 12.755C24.7542 12.124 24.8147 11.4919 24.8523 10.8599C24.8867 10.0411 24.4997 9.24425 23.876 8.72379C23.7655 6.86411 23.6852 5.00338 23.5694 3.14474C23.7999 3.06756 23.9386 2.86209 23.9209 2.61802C23.9125 2.34475 24.0888 1.96719 23.8176 1.77423C23.2054 1.66263 22.5733 1.71061 21.9569 1.60839C21.7347 1.61256 21.4302 1.49575 21.2779 1.71791Z" fill="#1F1F1F"/>
<path d="M3.33087 5.6011C3.77936 5.40919 4.37596 5.5041 4.67113 5.91504C4.99238 6.32808 4.98299 7.0029 4.58352 7.36378C4.18822 7.80706 3.40909 7.79872 3.01275 7.36065C2.48603 6.87357 2.66856 5.87124 3.33087 5.6011Z" fill="#1F1F1F"/>
<path d="M0.694176 13.9044C1.40655 13.5695 2.30667 14.2444 2.18568 15.0225C2.18255 15.8443 1.11972 16.3179 0.476187 15.8423C-0.251833 15.4125 -0.118328 14.1599 0.694176 13.9044Z" fill="#1F1F1F"/>
</svg>
