<svg width="128" height="23" viewBox="0 0 128 23" fill="none" xmlns="http://www.w3.org/2000/svg">
<path d="M33.35 17V6.5H37.4C40.775 6.5 43.025 8.75 43.025 11.75C43.025 14.825 40.775 17 37.4 17H33.35ZM35.45 15.275H37.4C39.425 15.275 40.85 13.85 40.85 11.75C40.85 9.65 39.425 8.225 37.4 8.225H35.45V15.275ZM48.6541 17.3C46.0291 17.3 44.3041 15.575 44.3041 13.25C44.3041 10.85 45.9541 9.2 48.2791 9.2C50.6041 9.2 52.2541 10.85 52.2541 13.25L51.2791 14.15H46.3891C46.7041 14.975 47.3791 15.65 48.8041 15.65C50.0041 15.65 50.7541 15.05 50.7541 15.05L51.5041 16.4C51.5041 16.4 50.3791 17.3 48.6541 17.3ZM46.3891 12.575H50.1541C50.0041 11.6 49.2541 10.85 48.2791 10.85C47.3041 10.85 46.5541 11.6 46.3891 12.575ZM54.3611 17V8.075H53.2361V6.5H56.3111V17H54.3611ZM58.7176 17V9.5H60.6676V17H58.7176ZM59.6926 8.45C59.0176 8.45 58.4926 7.925 58.4926 7.325C58.4926 6.725 59.0176 6.2 59.6926 6.2C60.3676 6.2 60.8926 6.725 60.8926 7.325C60.8926 7.925 60.3676 8.45 59.6926 8.45ZM65.0932 17L62.0182 9.5H64.1182L66.2182 15.05H66.2932L68.3932 9.5H70.4932L67.4182 17H65.0932ZM75.5926 17.3C72.9676 17.3 71.2426 15.575 71.2426 13.25C71.2426 10.85 72.8926 9.2 75.2176 9.2C77.5426 9.2 79.1926 10.85 79.1926 13.25L78.2176 14.15H73.3276C73.6426 14.975 74.3176 15.65 75.7426 15.65C76.9426 15.65 77.6926 15.05 77.6926 15.05L78.4426 16.4C78.4426 16.4 77.3176 17.3 75.5926 17.3ZM73.3276 12.575H77.0926C76.9426 11.6 76.1926 10.85 75.2176 10.85C74.2426 10.85 73.4926 11.6 73.3276 12.575ZM80.8496 17V9.875C80.8496 9.875 82.2746 9.2 83.9246 9.2C85.3796 9.2 86.4746 9.8 86.4746 9.8L85.9496 11.3C85.9496 11.3 85.1996 10.85 84.0746 10.85C83.3996 10.85 82.7996 11.075 82.7996 11.075V17H80.8496ZM91.049 20.15C89.249 20.15 88.124 19.25 88.124 19.25L88.874 17.9C88.874 17.9 89.774 18.5 91.049 18.5C93.074 18.5 93.374 16.85 93.374 16.85V16.7C93.374 16.7 92.474 16.85 91.724 16.85C89.174 16.85 87.749 15.425 87.749 13.475V9.5H89.699V13.475C89.699 14.45 90.449 15.2 91.724 15.2C92.549 15.2 93.374 14.975 93.374 14.975V9.5H95.324V16.7C95.324 18.5 93.749 20.15 91.049 20.15ZM97.8031 17V6.5H102.603C105.528 6.5 107.103 8.075 107.103 10.1C107.103 12.125 105.528 13.7 102.603 13.7H99.9031V17H97.8031ZM99.9031 11.975H102.603C104.028 11.975 104.928 11.075 104.928 10.1C104.928 9.125 104.028 8.225 102.603 8.225H99.9031V11.975ZM112.73 17.3C110.18 17.3 108.755 15.875 108.755 13.925V9.5H110.705V13.925C110.705 14.9 111.455 15.65 112.73 15.65C113.555 15.65 114.38 15.425 114.38 15.425V9.5H116.33V16.625C116.33 16.625 114.455 17.3 112.73 17.3ZM122.034 17.3C120.309 17.3 118.659 16.625 118.659 16.625V6.5H120.609V9.425C120.609 9.425 121.359 9.2 122.034 9.2C124.659 9.2 126.459 11 126.459 13.25C126.459 15.5 124.659 17.3 122.034 17.3ZM122.034 15.65C123.459 15.65 124.434 14.675 124.434 13.25C124.434 11.825 123.459 10.85 122.034 10.85C121.359 10.85 120.609 11.075 120.609 11.075V15.425C120.609 15.425 121.359 15.65 122.034 15.65Z" fill="white"/>
<path d="M21.3678 0.196442C22.0218 0.0410337 22.6924 0.222517 23.3527 0.231904C23.9034 0.307 24.4927 0.225646 25.0017 0.491613C25.7046 0.801386 26.1323 1.57947 26.0655 2.33878C26.0092 2.89158 26.0228 3.49548 25.6953 3.97317C25.7776 5.35516 25.8736 6.73715 25.9331 8.12017C26.3117 8.65941 26.7247 9.20073 26.8666 9.862C27.12 10.7173 26.9416 11.6007 26.902 12.4706C26.7299 14.4418 26.6079 16.4173 26.4264 18.3886C26.3972 18.9831 26.4055 19.5995 26.1583 20.1544C25.6953 21.3528 24.4124 22.11 23.1493 22.084C22.101 22.0589 21.0622 21.9025 20.015 21.8691C18.9272 21.8357 17.9029 21.1828 17.3919 20.2253C14.0574 20.2149 10.7239 20.2253 7.38941 20.2212C7.02227 20.2264 6.63532 20.1002 6.41524 19.7904C6.11486 19.3471 6.1232 18.6546 6.55396 18.2947C6.76987 18.0663 7.09007 17.9985 7.3915 18.0016C8.53985 17.9933 9.6882 18.0069 10.8355 17.9985C11.2047 17.9881 11.648 17.8473 11.7773 17.4614C12.0464 16.943 11.6272 16.2337 11.0379 16.2327C9.12811 16.2191 7.21836 16.2306 5.30757 16.2285C4.87263 16.2233 4.40015 16.2765 4.00694 16.0491C3.34984 15.7112 3.26223 14.6671 3.83797 14.2113C4.09872 13.9934 4.44396 13.9047 4.77876 13.911C7.94534 13.9099 11.1119 13.913 14.2785 13.9099C14.9147 13.9694 15.4154 13.1548 15.0409 12.626C14.8845 12.3026 14.5184 12.1608 14.1773 12.166C10.2817 12.1639 6.38604 12.1639 2.4904 12.166C2.14934 12.1796 1.79367 12.0836 1.54752 11.8375C1.20959 11.4901 1.11989 10.9165 1.35769 10.4899C1.57673 10.1436 1.96577 9.89016 2.3861 9.91832C6.07209 9.91519 9.75913 9.92145 13.4451 9.91624C13.7653 9.92354 14.0824 9.79108 14.315 9.57309C14.5893 9.24037 14.5987 8.73451 14.3995 8.36215C14.1564 7.97207 13.6548 7.88654 13.2313 7.8782C11.4582 7.88133 9.68507 7.87611 7.91196 7.88237C7.54378 7.8782 7.12344 7.85421 6.85331 7.56738C6.33284 7.11263 6.39751 6.15411 7.0108 5.80887C7.34352 5.59505 7.75134 5.64616 8.12682 5.64303C11.4634 5.64616 14.801 5.64303 18.1387 5.64512C18.7707 5.64094 19.3767 5.26338 19.674 4.7085C19.8763 4.29859 19.9045 3.83445 20.0036 3.3943C19.7845 2.89157 19.9003 2.33565 19.9378 1.81102C20.0088 1.04336 20.621 0.368538 21.3678 0.196442ZM21.8476 1.8517C21.7829 2.13957 21.7548 2.43682 21.7485 2.73304C21.7318 2.98127 22.1229 3.08245 21.9874 3.35467C21.64 5.09962 21.3125 6.84979 20.9464 8.59057C20.668 8.86488 20.3071 9.0641 20.1047 9.41351C19.5728 10.1394 19.6729 11.0802 19.5655 11.9251C19.4466 13.8359 19.263 15.7414 19.1587 17.6533C19.1253 18.2686 18.9293 18.9299 19.2119 19.5161C19.4424 19.9677 19.9232 20.2817 20.4312 20.3077C21.3699 20.362 22.3076 20.4527 23.2452 20.5299C23.8293 20.5904 24.3998 20.2253 24.6627 19.7132C24.8306 19.368 24.8233 18.9716 24.8546 18.5972C24.8848 17.9432 24.9558 17.2924 25.0079 16.6395C24.3383 17.2966 23.2661 17.6481 22.3993 17.1672C21.081 16.5122 20.694 14.7474 21.2395 13.4593C21.5983 12.6208 22.4066 11.9115 23.3495 11.8875C24.1151 11.8302 24.8369 12.2818 25.2707 12.8888C25.3239 12.2578 25.3844 11.6257 25.422 10.9937C25.4564 10.1749 25.0694 9.37804 24.4457 8.85758C24.3352 6.9979 24.2549 5.13717 24.1391 3.27853C24.3696 3.20135 24.5083 2.99588 24.4906 2.75181C24.4822 2.47854 24.6585 2.10097 24.3873 1.90802C23.7751 1.79642 23.143 1.84439 22.5266 1.74218C22.3044 1.74635 21.9999 1.62953 21.8476 1.8517Z" fill="white"/>
<path d="M3.90057 5.73586C4.34906 5.54395 4.94566 5.63886 5.24084 6.04981C5.56208 6.46284 5.5527 7.13767 5.15322 7.49855C4.75792 7.94183 3.9788 7.93348 3.58245 7.49542C3.05573 7.00833 3.23826 6.006 3.90057 5.73586Z" fill="white"/>
<path d="M1.26388 14.0391C1.97625 13.7043 2.87637 14.3791 2.75538 15.1572C2.75225 15.9791 1.68943 16.4526 1.04589 15.977C0.317869 15.5473 0.451374 14.2947 1.26388 14.0391Z" fill="white"/>
</svg>
